<svg id="Calque_1" data-name="Calque 1" xmlns="http://www.w3.org/2000/svg" viewBox="0 0 276 162.54"><defs><style>.cls-1{fill:#65c2c5;}</style></defs><path class="cls-1" d="M207.71,42.91c-19.47,0-36,10.16-46.52,28.41l-23.6,41.29-23.66-41.4C103.43,53,87,42.91,67.54,42.91h-.23l68.43,118.46a2.34,2.34,0,0,0,4,0L208.18,42.91Z"/><path class="cls-1" d="M46.85,81.37,31.08,53.85c-7-12.12-18-18.78-30.93-18.78H0l45,77.77a2.34,2.34,0,0,0,4,0l14.77-25.6L53.59,69.61Z"/><path class="cls-1" d="M47,6.49h0A13.62,13.62,0,0,0,35.16,26.92L47,47.35,58.75,26.92A13.62,13.62,0,0,0,47,6.49"/><path class="cls-1" d="M137.74,0h0a20.43,20.43,0,0,0-17.69,30.65l17.7,30.64,17.69-30.64A20.44,20.44,0,0,0,137.74,0"/><path class="cls-1" d="M275.69,35.07c-13,0-24,6.68-31,18.84L228.94,81.39l-6.63-11.6L212.25,87.21,227,112.8a2.34,2.34,0,0,0,4.05,0L276,35.07Z"/><path class="cls-1" d="M229,6.5h0a13.61,13.61,0,0,0-11.79,20.43l11.8,20.43,11.79-20.43A13.62,13.62,0,0,0,229,6.5"/></svg>